<svg width="16" height="16" viewBox="0 0 16 16" fill="none" xmlns="http://www.w3.org/2000/svg">
<g clip-path="url(#clip0_7156_194)">
<path d="M4.66663 4.001C4.84344 4.001 5.01301 3.93076 5.13803 3.80573C5.26305 3.68071 5.33329 3.51114 5.33329 3.33433C5.33329 3.15752 5.26305 2.98795 5.13803 2.86293C5.01301 2.7379 4.84344 2.66766 4.66663 2.66766H3.33329C3.15648 2.66766 2.98691 2.7379 2.86189 2.86293C2.73686 2.98795 2.66663 3.15752 2.66663 3.33433V12.6677C2.66663 12.8445 2.73686 13.014 2.86189 13.1391C2.98691 13.2641 3.15648 13.3343 3.33329 13.3343H4.66663C4.84344 13.3343 5.01301 13.2641 5.13803 13.1391C5.26305 13.014 5.33329 12.8445 5.33329 12.6677C5.33329 12.4909 5.26305 12.3213 5.13803 12.1963C5.01301 12.0712 4.84344 12.001 4.66663 12.001H3.99996V4.001H4.66663Z" fill="white"/>
<path d="M13.88 7.6143L12 4.94763C11.898 4.80391 11.7433 4.70639 11.5697 4.67641C11.396 4.64643 11.2176 4.68642 11.0733 4.78763C11.0012 4.83815 10.9399 4.90246 10.8927 4.97683C10.8456 5.05121 10.8137 5.13418 10.7988 5.22095C10.784 5.30773 10.7864 5.39659 10.8061 5.48241C10.8257 5.56823 10.8622 5.64931 10.9133 5.72096L12.06 7.3343H6.66667C6.48986 7.3343 6.32029 7.40454 6.19526 7.52956C6.07024 7.65458 6 7.82415 6 8.00096C6 8.17778 6.07024 8.34734 6.19526 8.47237C6.32029 8.59739 6.48986 8.66763 6.66667 8.66763H12L10.8 10.2676C10.7475 10.3377 10.7093 10.4174 10.6875 10.5022C10.6658 10.587 10.661 10.6752 10.6734 10.7619C10.6857 10.8486 10.7151 10.932 10.7597 11.0073C10.8043 11.0826 10.8633 11.1484 10.9333 11.201C11.0487 11.2875 11.1891 11.3343 11.3333 11.3343C11.4368 11.3343 11.5389 11.3102 11.6315 11.2639C11.724 11.2176 11.8046 11.1504 11.8667 11.0676L13.8667 8.40096C13.952 8.28821 13.9994 8.15122 14.0018 8.00981C14.0041 7.86839 13.9615 7.72988 13.88 7.6143Z" fill="white"/>
</g>
<defs>
<clipPath id="clip0_7156_194">
<rect width="16" height="16" fill="white" transform="translate(0 0.000976562)"/>
</clipPath>
</defs>
</svg>
